<svg width="493" height="391" viewBox="0 0 493 391" fill="none" xmlns="http://www.w3.org/2000/svg">
<path d="M308.086 314.376C308.744 314.27 309.144 314.263 309.749 314.565C310.954 315.165 313.165 314.915 313.977 315.512C314.049 315.915 314.114 315.846 313.869 316.22C312.761 316.269 311.245 315.678 310.093 315.502C309.169 315.406 308.166 315.362 307.242 315.466C306.484 315.551 305.339 315.965 304.605 315.856C304.242 315.801 303.991 315.637 303.681 315.453L303.625 315.195C304.584 314.458 306.864 314.497 308.086 314.376Z" fill="#FEFEFE"/>
<path d="M305.706 310.992C306.09 311.085 306.405 311.376 306.635 311.684C306.609 311.93 306.664 312.095 306.452 312.259C305.722 312.826 300.891 314.008 299.966 313.927L298.174 313.302C300.76 312.761 303.212 311.846 305.706 310.992Z" fill="#FEFEFE"/>
<path d="M249.661 212.011C249.872 212.065 250.074 212.129 250.274 212.217C250.887 212.485 251.368 212.862 251.596 213.512C252.098 214.947 251.684 216.972 251.052 218.323L250.377 217.697C250.324 217.666 250.272 217.63 250.217 217.604C249.552 217.287 249.075 217.479 248.422 217.715C248.124 217.822 248.288 217.817 247.962 217.719C247.827 217.407 247.791 217.175 247.816 216.841C247.944 215.12 248.345 213.19 249.661 212.011Z" fill="#FEFEFE"/>
<path d="M200.047 310.986L200.708 311.2L200.783 311.64L200.975 311.443L200.916 311.712C198.263 313.158 193.323 312.792 190.919 314.203C190.56 314.413 190.446 314.549 190.36 314.948C190.648 315.317 190.752 315.446 191.221 315.535C192.863 315.845 199.43 314.21 201.345 313.63C201.991 313.434 203.067 312.828 203.674 312.808C203.829 312.802 203.966 312.91 204.113 312.961C201.147 314.721 197.652 315.626 194.23 315.926C192.769 316.053 190.357 316.282 189.177 315.284C188.99 314.875 189 314.823 189.069 314.374C189.701 313.625 198.358 311.538 200.047 310.986Z" fill="#FEFEFE"/>
<path d="M266.547 253.617L271.079 255C270.414 258.14 269.111 261.217 267.749 264.116C266.435 263.99 264.622 262.855 263.344 262.331C264.681 259.494 265.778 256.665 266.547 253.617Z" fill="#FEFEFE"/>
<path d="M235.412 255.056L235.763 255.074C236.089 255.484 238.511 262.963 238.984 264.208C237.679 264.822 236.309 265.324 234.969 265.859C232.816 263.224 232.024 259.42 231.209 256.197L235.412 255.056Z" fill="#FEFEFE"/>
<path d="M291.555 136.507L291.848 136.514C292.288 136.523 292.655 136.549 293.064 136.732C294.283 137.276 295.096 138.361 295.552 139.586C296.485 142.094 296.318 145.338 295.122 147.716C294.157 149.636 292.878 150.551 290.896 151.189L288.471 151.628C288.856 150.184 289.012 148.228 289.734 146.928C290.14 146.196 290.876 145.622 291.322 144.879C291.83 144.032 292.172 143.106 291.884 142.117C291.698 141.48 291.213 141.256 290.675 140.966C290.768 139.706 290.629 137.387 291.555 136.507Z" fill="#FEFEFE"/>
<path d="M240.786 182.353C243.687 184.781 246.754 187.024 249.787 189.284L246.093 193.537C245.222 194.547 244.33 195.538 243.417 196.509C242.199 194.468 241.039 192.423 239.74 190.428C240.061 187.723 240.348 185.043 240.786 182.353Z" fill="#FEFEFE"/>
<path d="M208.315 136.366C209.177 136.379 209.934 136.535 210.765 136.733L211.155 140.751C210.923 140.903 210.693 141.049 210.503 141.253C210.081 141.702 209.866 142.346 209.903 142.96C209.933 143.459 210.214 143.88 210.602 144.182C211.06 144.539 211.651 144.426 212.189 144.382C212.398 146.604 213.048 148.739 213.622 150.887C212.941 150.859 212.258 150.804 211.577 150.762C210.824 150.549 210.108 150.303 209.427 149.909C207.073 148.545 205.41 145.966 204.766 143.36C204.365 141.737 204.268 139.777 205.197 138.315C205.945 137.14 206.994 136.631 208.315 136.366Z" fill="#FEFEFE"/>
<path d="M262.238 181.925C263.138 182.82 263.819 189.001 264.051 190.491C262.892 192.816 261.082 194.933 259.671 197.131C259.027 196.381 258.417 195.596 257.792 194.829C256.277 192.981 254.728 191.162 253.145 189.372C256.32 187.053 259.273 184.502 262.238 181.925Z" fill="#FEFEFE"/>
<path d="M238.749 266.366L238.886 266.51C238.951 268.967 238.098 271.936 237.614 274.367C235.855 283.205 233.883 291.88 230.992 300.427C230.195 302.78 229.483 305.213 228.273 307.393C227.139 307.168 225.996 306.978 224.858 306.772C224.679 306.706 224.488 306.611 224.312 306.534C224.092 305.584 226.725 298.965 227.242 297.308C228.773 292.534 230.161 287.72 231.406 282.864C232.651 278.008 233.752 273.119 234.706 268.198C236.09 267.698 237.42 266.996 238.749 266.366Z" fill="#FEFEFE"/>
<path d="M262.494 264.205C263.803 264.705 265.078 265.298 266.358 265.868C266.897 267.469 267.207 269.209 267.619 270.853C268.453 274.179 269.281 277.511 270.165 280.824C270.741 283.02 271.371 285.2 272.056 287.364C272.741 289.528 273.48 291.674 274.273 293.801C275.066 295.929 275.912 298.035 276.811 300.12C277.709 302.204 278.66 304.265 279.662 306.302C277.958 306.395 276.275 306.231 274.581 306.071C268.538 295.599 264.483 276.339 262.494 264.205Z" fill="#FEFEFE"/>
<path d="M222.797 311.881C227.337 311.914 233.733 314.274 237.301 317.096C232.663 317.96 227.516 317.689 222.8 317.854C215.109 318.149 207.422 318.528 199.739 318.99C195.255 319.487 190.712 319.556 186.213 319.932C187.245 319.176 188.188 318.392 189.116 317.509C195.266 318.411 201.308 316.947 206.491 313.607C212.014 313.728 217.31 312.189 222.797 311.881Z" fill="#FEFEFE"/>
<path d="M239.487 193.377C240.776 194.542 241.779 197.51 243.15 199.094C244.459 197.984 245.566 196.725 246.635 195.385L248.466 197.717C247.032 201.93 246.73 206.719 246.066 211.111C245.063 217.767 243.965 224.407 242.771 231.032C242.241 234.051 241.754 237.09 241.486 240.145C241.018 237.863 241.034 235.261 240.768 232.921C239.373 220.675 238.008 205.585 239.487 193.377Z" fill="#FEFEFE"/>
<path d="M248.717 218.68C248.927 218.701 249.151 218.714 249.353 218.784C249.789 218.936 250.171 219.353 250.367 219.76C251.022 221.114 250.251 227.222 250.212 229.235C250.139 233.067 250.47 236.893 250.479 240.723C250.482 242.078 250.197 243.425 250.209 244.777C250.217 245.758 250.561 246.84 250.767 247.808C251.278 250.212 251.272 252.966 250.415 255.296C248.899 259.422 244.873 261.535 241.11 263.255C239.582 260.611 238.63 257.361 237.762 254.438C239.318 253.92 241.07 253.279 242.1 251.936C244.544 248.751 244.863 240.012 245.403 235.969C245.818 232.867 246.381 229.786 246.782 226.681C247.056 224.56 247.086 221.82 247.863 219.856C248.043 219.402 248.391 219.034 248.717 218.68Z" fill="#FEFEFE"/>
<path d="M264.198 193.395C265.971 205.573 265.543 217.69 263.633 229.833C263.164 232.809 262.405 235.726 261.91 238.698C261.79 235.656 261.381 232.617 260.945 229.606C259.97 223.705 259.082 219.641 256.003 214.425C256.289 209.789 255.801 203.07 254.928 198.484L256.454 195.801C257.222 196.785 258.02 198.01 258.99 198.789C259.422 199.136 259.697 199.215 260.242 199.175C261.138 198.632 263.346 194.632 264.198 193.395Z" fill="#FEFEFE"/>
<path d="M253.547 215.275C253.586 215.29 253.624 215.303 253.662 215.32C254.642 215.755 255.48 216.801 255.747 217.835C256.274 219.876 256.006 222.32 256.147 224.431C256.566 230.699 257.47 243.9 259.908 249.287C260.842 251.35 262.8 252.131 264.78 252.876C263.857 255.782 262.754 258.573 261.274 261.245L261.011 261.479C260.775 261.451 260.787 261.461 260.517 261.381C257.776 260.581 254.467 257.916 253.056 255.429C251.533 252.745 251.302 249.862 251.783 246.844C251.903 246.092 252.232 245.28 252.204 244.517C252.142 242.841 251.765 241.128 251.659 239.437C251.108 230.644 251.137 223.815 253.547 215.275Z" fill="#FEFEFE"/>
<path d="M265.018 175.897C267.836 178.018 269.651 186.727 270.186 190.25C272.863 207.882 270.732 225.727 267.277 243.072C266.951 244.713 266.323 249.842 265.449 251.031C264.11 250.433 262.935 249.85 261.824 248.877C262.385 244.826 263.696 240.767 264.477 236.725C266.434 226.604 267.459 216.594 267.346 206.276C267.302 203.28 267.155 200.29 266.905 197.305C266.654 194.32 266.3 191.347 265.843 188.387C265.429 185.727 264.379 182.883 264.335 180.208C264.313 178.87 264.917 177.498 265.006 176.127C265.011 176.051 265.014 175.974 265.018 175.897Z" fill="#FEFEFE"/>
<path d="M238.773 175.963C239.615 177.067 237.492 190.533 237.307 192.576C236.211 204.732 236.783 216.856 237.984 228.978C238.629 236.08 239.62 243.134 240.957 250.14C239.761 251.13 238.608 251.852 237.176 252.456C235.787 251.025 233.462 221.335 233.167 216.6C232.542 206.557 231.636 189.429 235.813 180.214C236.557 178.571 237.585 177.309 238.773 175.963Z" fill="#FEFEFE"/>
<path d="M275.015 313.885C277.785 313.875 280.522 314.191 283.285 314.282C287.993 314.437 293.837 313.905 298.339 315.184C300.354 315.756 302.145 316.973 303.92 318.046C306.148 317.635 310.118 316.89 312.19 318.061C312.889 318.456 312.962 319.314 313.752 319.527C314.883 319.832 315.92 319.408 317.024 320.02L317.072 320.217C315.024 320.835 312.664 320.989 310.542 321.328C306.203 322.02 301.766 322.744 297.528 323.904C292.763 325.141 288.161 326.829 283.434 328.177C276.372 330.193 269.299 330.882 261.973 330.657L261.219 326.298C262.492 323.346 263.999 320.143 266.136 317.707C268.518 314.992 271.511 314.106 275.015 313.885Z" fill="#FEFEFE"/>
<path d="M232.076 269.185L232.228 269.335C232.198 271.215 231.444 273.465 231.043 275.319C228.777 285.798 225.553 295.81 222.054 305.923C216.985 304.521 211.935 303.186 207.063 301.18C205.426 300.465 203.855 299.536 202.305 298.651C204.828 292.037 206.354 285.083 208.288 278.285C216.613 276.033 224.327 272.977 232.076 269.185Z" fill="#FEFEFE"/>
<path d="M269.164 267.113C272.009 268.263 274.757 269.69 277.567 270.927C283.292 273.445 289.286 275.745 295.289 277.49C296.812 284.134 298.212 290.918 300.55 297.335C299.159 298.746 296.897 299.638 295.138 300.532C290.771 302.736 286.502 304.49 281.838 305.972C280.662 303.524 279.551 301.046 278.506 298.539C277.461 296.032 276.483 293.499 275.572 290.941C274.661 288.382 273.819 285.801 273.045 283.198C272.271 280.594 271.566 277.972 270.931 275.332C270.259 272.652 269.437 269.867 269.164 267.113Z" fill="#FEFEFE"/>
<path d="M257.898 262.387C258.695 262.687 259.41 263.106 260.148 263.524C262.44 274.928 264.292 286.394 268.229 297.39C269.314 300.422 270.639 303.334 271.978 306.26L259.249 309.529C256.859 307.118 253.499 302.852 250.726 301.175C247.842 303.65 245.618 306.903 242.811 309.5C239.051 308.259 235.176 307.316 231.354 306.287C232.048 304.383 232.719 302.471 233.367 300.551C234.86 296.217 235.899 291.822 236.922 287.362C238.601 280.046 239.93 272.799 241.142 265.396L243.686 264.236C242.165 275.757 242.314 281.085 248.17 291.432C248.797 292.541 249.284 293.739 249.956 294.818C250.26 295.305 250.53 295.603 251.108 295.747C251.637 295.626 251.885 295.39 252.216 294.98C253.362 293.559 254.164 291.517 254.979 289.88C260.25 279.295 259.097 273.559 257.898 262.387Z" fill="#FEFEFE"/>
<path d="M343.271 322.203C346.987 323.319 350.534 324.796 354.121 326.257C360.643 329.094 367.405 332.1 373.152 336.351C375.113 337.801 376.936 339.479 378.726 341.133C380.555 342.823 382.568 344.632 383.557 346.973C384.062 348.168 384.28 349.413 383.727 350.629C383.1 352.007 381.767 353.097 380.623 354.039C375.478 358.279 369.471 360.911 363.284 363.258C357.634 365.401 351.62 366.718 345.715 367.938C330.737 371.035 315.108 372.839 299.849 373.981C297.53 374.154 295.204 374.137 292.887 374.292C288.318 374.597 283.732 375.141 279.155 375.332C276.535 375.441 273.867 375.565 271.249 375.573C269.556 375.579 267.869 375.449 266.176 375.496C262.869 375.587 259.591 375.948 256.294 376.074C254.627 376.138 252.955 375.966 251.287 375.957C249.746 375.948 248.206 376.11 246.663 376.1C244.705 376.087 242.754 375.752 240.795 375.698C233.917 375.51 227.074 375.331 220.2 374.985C215.44 374.746 210.662 374.662 205.907 374.336C192.386 373.383 178.94 371.801 165.567 369.591C159.372 368.579 153.044 367.65 146.978 366.008C142.231 364.723 137.485 362.825 133.007 360.808C128.905 358.96 119.979 354.661 118.484 350.361C118.036 349.073 118.2 347.662 118.793 346.451C119.75 344.493 121.542 342.853 123.082 341.345C132.88 331.75 146.265 326.491 159.084 322.336L159.18 322.532C157.657 324.486 156.572 326.591 155.553 328.834C146.02 331.868 137.532 335.963 129.563 342.035C127.588 343.54 125.412 345.197 123.831 347.109C123.362 347.675 122.941 348.391 123.064 349.155C123.258 350.352 124.608 351.162 125.563 351.737C132.721 356.056 141.017 359.459 149.061 361.676C152.936 362.744 156.893 363.455 160.842 364.184C169.306 365.748 177.697 366.903 186.252 367.832C190.895 368.323 195.543 368.76 200.196 369.145C204.849 369.529 209.505 369.86 214.166 370.138C218.826 370.416 223.489 370.64 228.155 370.811C232.82 370.982 237.487 371.1 242.155 371.164C246.823 371.228 251.492 371.239 256.16 371.196C260.829 371.153 265.496 371.057 270.162 370.907C274.828 370.758 279.492 370.555 284.154 370.298C288.816 370.042 293.474 369.732 298.128 369.369C313.23 368.27 328.16 366.696 343.036 363.791C346.356 363.143 349.7 362.55 352.982 361.727C360.833 359.758 369.012 356.703 375.724 352.107C376.869 351.323 378.346 350.434 379.073 349.22C379.108 348.907 379.089 348.679 378.966 348.39C378.409 347.082 376.914 346.036 375.899 345.052C367.953 337.337 358.079 332.784 347.855 328.859C346.718 326.432 345.242 324.037 343.271 322.203Z" fill="#FEFEFE"/>
<path d="M271.157 183.203C272.703 183.596 274.224 184.068 275.721 184.62C287.117 188.825 292.854 197.057 297.708 207.665C300.118 212.932 302.171 218.415 304.006 223.907C308.166 236.358 311.455 249.106 314.793 261.796C315.337 263.927 315.946 266.038 316.62 268.131C317.127 269.71 317.787 271.33 318.093 272.954C318.27 273.893 318.375 274.951 317.999 275.857C317.601 276.814 316.665 277.49 315.736 277.88C308.951 280.728 289.149 273.424 282.491 270.701C278.168 268.932 274.009 266.823 269.699 265.033C270.963 261.978 272.041 258.895 273.03 255.742C278.383 257.414 283.799 258.83 289.22 260.262C292.089 260.936 294.977 261.569 297.824 262.331C300.026 262.92 302.474 263.953 304.721 264.13C305.324 264.178 305.779 264.113 306.244 263.722L306.18 263.297C304.739 261.353 300.747 260.785 298.473 260.196C298.457 260.056 298.439 259.917 298.416 259.778C297.99 257.218 297.048 254.628 296.348 252.124L292.332 237.707C291.149 233.534 290.005 229.35 288.899 225.156C288.503 223.594 288.358 221.879 287.88 220.368C287.71 219.83 287.468 219.36 287.004 219.026L286.765 219.188C286.327 221.131 287.104 223.353 287.313 225.307C288.4 236.459 289.835 247.567 291.617 258.629C287.694 257.547 283.717 256.651 279.797 255.556C275.766 254.429 271.78 253.098 267.777 251.87C271.616 233.998 274.675 216.374 273.183 198.011C272.777 193.008 271.902 188.156 271.157 183.203Z" fill="#FEFEFE"/>
<path d="M231.736 183.647L232.044 183.635C232.281 183.876 232.202 183.951 232.164 184.269C231.995 185.698 231.586 187.121 231.366 188.549C230.996 190.95 230.851 193.447 230.722 195.873C229.902 211.321 231.391 227.166 233.256 242.493C233.688 246.046 234.296 249.574 234.72 253.127C231.605 253.91 228.558 254.955 225.456 255.789C220.919 257.009 216.31 258.025 211.758 259.197C212.359 249.656 212.885 239.925 214.234 230.464C214.58 228.056 215.03 225.667 215.584 223.299C216.042 221.344 216.983 219.058 216.97 217.058C216.967 216.553 216.9 216.213 216.529 215.868C216.369 215.896 216.262 215.902 216.112 215.993C215.485 216.378 215.091 217.295 214.856 217.955C214.437 219.134 214.214 220.413 213.898 221.626C213.388 223.586 212.812 225.531 212.256 227.478C210.224 234.601 208.076 241.674 206.322 248.874C205.314 253.008 204.603 257.209 203.575 261.335C202.665 261.604 200.77 261.958 200.15 262.652C199.817 263.024 199.825 263.152 199.814 263.623L200.088 263.906C201.287 264.16 209.871 261.653 211.851 261.164C217.619 259.649 223.456 258.433 229.223 256.917C229.905 260.359 231.226 263.551 232.803 266.67C226.617 269.174 220.725 272.091 214.342 274.136C209.144 275.8 197.661 278.896 192.427 278.638C191.121 278.573 189.845 278.253 188.69 277.629C187.779 277.137 186.335 276.157 186.083 275.069C185.675 273.296 185.951 271.135 186.059 269.328C186.6 260.249 188.684 251.533 190.907 242.747C193.207 233.658 195.79 224.536 199.196 215.794C200.97 211.242 203.26 206.444 205.841 202.288C212.158 192.116 220.078 186.322 231.736 183.647Z" fill="#FEFEFE"/>
<path d="M250.998 62.2412C253.327 62.4792 257.181 64.3764 259.488 65.3052C273.923 71.1182 287.689 78.4509 298.394 89.9464C302.945 87.6796 307.408 85.9315 312.387 84.8746C328.427 81.4688 345.97 84.0335 359.732 93.0973C370.197 99.9898 378.26 111.983 382.27 123.767C383.855 128.426 384.836 133.35 385.82 138.167C387.688 147.306 388.111 156.142 387.398 165.426C387.143 168.744 386.932 172.072 386.414 175.362C384.793 185.655 381.292 195.765 377.491 205.436C373.827 214.756 369.293 224.376 363.733 232.709C354.863 246.003 341.759 258.15 327.82 265.967C325.176 267.45 322.401 269.18 319.401 269.778C317.322 264.167 316.051 258.053 314.513 252.263C309.831 234.633 302.99 207.887 291.846 193.436C291.682 193.227 291.516 193.02 291.347 192.815C291.179 192.61 291.008 192.407 290.834 192.206C290.661 192.005 290.485 191.807 290.306 191.61C290.128 191.413 289.947 191.219 289.764 191.027C289.581 190.834 289.396 190.644 289.208 190.457C289.021 190.269 288.831 190.083 288.639 189.9C288.447 189.717 288.252 189.536 288.056 189.357C287.859 189.179 287.661 189.003 287.46 188.829C287.26 188.655 287.057 188.484 286.852 188.315C286.647 188.147 286.44 187.98 286.232 187.817C286.023 187.652 285.812 187.491 285.599 187.332C285.386 187.174 285.172 187.017 284.955 186.864C284.739 186.71 284.521 186.559 284.3 186.411C284.08 186.263 283.858 186.117 283.635 185.974C283.411 185.831 283.186 185.691 282.958 185.553C282.732 185.416 282.503 185.281 282.273 185.149C282.042 185.017 281.81 184.888 281.577 184.762C281.344 184.635 281.109 184.511 280.872 184.391C280.636 184.27 280.398 184.152 280.159 184.037C279.92 183.922 279.679 183.81 279.437 183.701C279.195 183.591 278.952 183.485 278.707 183.382C278.463 183.279 278.217 183.178 277.971 183.081C277.723 182.983 277.475 182.889 277.226 182.797C276.977 182.706 276.727 182.618 276.476 182.532C276.224 182.447 275.972 182.364 275.718 182.285C275.465 182.206 275.211 182.13 274.956 182.056C274.701 181.983 274.445 181.913 274.188 181.846C273.931 181.779 273.673 181.715 273.415 181.655C273.156 181.594 272.897 181.536 272.638 181.482C272.378 181.427 272.117 181.376 271.856 181.328C271.595 181.279 271.334 181.234 271.072 181.192C270.81 181.15 270.547 181.111 270.284 181.076C269.454 178.633 268.525 176.685 267.109 174.528C267.251 174.471 267.393 174.412 267.534 174.351C274.672 171.296 281.241 166.351 285.16 159.545C286.212 157.718 286.989 155.771 287.767 153.817C290.853 153.27 293.674 152.597 295.753 150.031C297.69 147.642 298.227 144.489 297.862 141.498C297.6 139.349 296.777 137.001 294.974 135.674C293.638 134.69 292.508 134.696 290.959 134.966C290.944 132.834 290.905 130.703 290.842 128.572C290.447 116.866 288.267 106.202 279.277 97.8651C279.018 97.626 278.756 97.3901 278.491 97.1572C278.226 96.9243 277.958 96.6948 277.688 96.4686C277.417 96.2424 277.144 96.0196 276.867 95.8C276.592 95.5805 276.313 95.3644 276.032 95.1517C275.75 94.9391 275.466 94.7299 275.18 94.5241C274.893 94.3183 274.604 94.1161 274.313 93.9174C274.022 93.7187 273.728 93.5236 273.432 93.3321C273.136 93.1405 272.837 92.9527 272.536 92.7687C272.236 92.5844 271.933 92.4038 271.627 92.2269C271.322 92.0502 271.015 91.8772 270.705 91.7078C270.396 91.5387 270.085 91.3732 269.771 91.2114C269.458 91.0498 269.142 90.892 268.825 90.7382C268.508 90.5842 268.189 90.4341 267.868 90.288C267.547 90.142 267.224 89.9998 266.899 89.8615C266.575 89.7232 266.249 89.5889 265.921 89.4586C265.593 89.3283 265.264 89.2021 264.933 89.08C264.602 88.9577 264.27 88.8395 263.936 88.7254C263.603 88.6115 263.267 88.5017 262.931 88.3958C262.595 88.2899 262.257 88.1881 261.918 88.0904C261.579 87.9928 261.239 87.8993 260.898 87.8101C260.557 87.7208 260.214 87.6357 259.871 87.5547C259.528 87.4737 259.184 87.397 258.838 87.3246C258.493 87.252 258.147 87.1838 257.801 87.1198C257.454 87.0557 257.106 86.9959 256.758 86.9404C256.409 86.8849 256.061 86.8336 255.711 86.7865C255.362 86.7395 255.012 86.6967 254.661 86.6583C254.31 86.6199 253.959 86.5858 253.608 86.5558C253.256 86.526 252.905 86.5005 252.553 86.4792C252.201 86.4581 251.848 86.4412 251.496 86.4286C251.144 86.4159 250.791 86.4076 250.438 86.4036C250.086 86.3996 249.733 86.3998 249.38 86.4043C249.028 86.4089 248.675 86.4179 248.323 86.4313C238.116 86.8741 227.365 91.1877 220.406 98.83C218.077 101.388 216.185 104.401 214.613 107.472C209.639 117.188 209.908 124.388 210.391 134.804C209.885 134.664 209.358 134.567 208.832 134.558C207.253 134.531 205.585 135.243 204.488 136.367C203.119 137.769 202.592 139.755 202.597 141.671C202.605 144.703 204.056 147.724 206.206 149.817C208.701 152.244 210.76 152.907 214.224 152.866C215.326 154.935 216.142 157.12 217.342 159.154C221.997 167.045 229.039 171.196 237.336 174.402C234.964 176.653 233.905 178.327 233.022 181.473C232.807 181.473 232.592 181.477 232.378 181.488C228.13 181.697 223.764 183.344 220.072 185.381C204.114 194.185 198.007 212.334 192.579 228.574C192.125 229.932 191.839 233.462 190.791 234.319C190.413 234.628 190.163 234.536 189.724 234.473C189.467 234.186 189.402 234.081 189.343 233.683C189.056 231.756 190.151 228.861 190.699 226.981C193.889 216.027 198.394 204.785 205.155 195.512C211.638 186.619 220.875 180.994 231.707 179.289C232.119 177.591 232.825 176.466 233.813 175.041C233.204 174.875 232.609 174.668 232.017 174.449C223.481 171.292 217.268 164.643 213.506 156.484C211.452 155.846 209.372 155.188 207.575 153.969C204.214 151.69 201.423 147.712 200.688 143.698C200.206 141.071 200.563 138.036 202.157 135.828C203.676 133.724 205.808 132.987 208.256 132.612C208.208 131.641 208.172 130.668 208.145 129.696C207.91 120.274 208.859 112.753 213.732 104.437C215.359 101.66 217.177 99.0362 219.411 96.7097C227.148 88.6565 238.266 84.1907 249.382 84.0206C260.094 83.8567 272.917 88.2659 280.655 95.8583C291.713 106.709 292.409 117.382 292.61 131.879C292.917 131.979 293.223 132.081 293.528 132.186C296.021 133.043 297.976 134.354 299.155 136.814C300.758 140.16 300.798 144.803 299.566 148.269C298.296 151.84 295.496 153.956 292.183 155.536C291.201 155.89 290.265 156.122 289.234 156.279C285.674 164.827 278.764 171.55 270.346 175.366C270.795 176.599 271.256 177.858 272.007 178.943C273.721 179.481 275.494 179.837 277.211 180.374C277.716 180.537 278.216 180.712 278.712 180.899C279.208 181.086 279.7 181.284 280.186 181.495C280.673 181.706 281.154 181.928 281.63 182.162C282.105 182.396 282.575 182.642 283.039 182.899C283.503 183.155 283.96 183.423 284.411 183.702C284.862 183.981 285.306 184.271 285.742 184.572C286.179 184.872 286.609 185.183 287.03 185.504C287.452 185.826 287.866 186.157 288.271 186.499C289.017 187.134 289.738 187.796 290.435 188.484C291.132 189.172 291.803 189.885 292.447 190.622C293.092 191.36 293.709 192.12 294.298 192.902C294.888 193.685 295.447 194.488 295.978 195.311C301.406 203.753 306.07 216.002 309.155 225.591C312.062 234.627 314.552 243.847 316.961 253.027C317.93 256.718 318.688 260.503 319.771 264.158C319.908 264.621 320.043 265.147 320.444 265.447C320.669 265.412 320.872 265.377 321.087 265.3C323.943 264.268 327.445 261.551 329.954 259.803C345.025 249.309 357.627 235.653 366.04 219.264C373.161 205.391 379.851 187.747 382.084 172.264C382.505 169.337 382.545 166.442 382.688 163.496C382.806 161.059 383.149 158.666 383.134 156.216C383.077 147.053 380.824 134.336 378 125.598C373.851 112.756 364.759 100.529 352.598 94.3669C342.457 89.2285 331.682 87.7092 320.415 88.498C316.605 88.7647 312.84 89.2119 309.152 90.2464C306.78 90.9137 304.46 91.7284 302.192 92.6904C300.618 93.3717 299.094 94.2301 297.459 94.7522C297.394 94.7728 297.328 94.7921 297.263 94.8121C294.673 92.7713 292.269 89.7287 289.508 87.5114C279.963 79.8486 267.562 72.9742 255.97 69.0373C254.582 68.5657 253.084 67.8349 251.631 67.6201C249.592 67.3186 245.841 69.3859 243.885 70.1416C232.437 74.5643 222.377 79.7392 212.784 87.4661C210.17 89.5715 207.973 92.3072 205.321 94.2947C205.274 94.33 205.225 94.3643 205.177 94.3992C202.027 93.4616 199.044 91.9156 195.896 90.9203C184.716 87.3869 173.136 87.2184 161.737 89.7853C151.565 92.0761 143.152 97.1436 136.204 104.878C134.463 106.818 132.773 108.842 131.389 111.055C130.482 112.503 129.753 114.055 128.919 115.545C128.323 116.609 127.608 117.65 127.117 118.764C122.884 128.376 119.292 143.844 118.859 154.291C118.745 157.035 119.144 159.671 119.344 162.395C119.794 168.506 119.876 172.827 121.292 178.939C121.892 181.492 122.549 184.03 123.261 186.555C123.974 189.079 124.742 191.586 125.565 194.076C126.388 196.567 127.265 199.038 128.196 201.489C129.128 203.941 130.113 206.371 131.152 208.779C133.162 213.429 135.178 218.173 137.65 222.6C144.822 235.438 155.457 247.286 167.078 256.257C169.928 258.467 172.882 260.526 175.94 262.436C178.615 264.073 181.386 265.544 184.051 267.2C184.035 268.441 183.915 269.69 183.831 270.929C183.198 270.643 182.569 270.351 181.942 270.054C181.315 269.756 180.692 269.452 180.071 269.142C179.45 268.832 178.832 268.516 178.217 268.195C177.602 267.873 176.991 267.546 176.382 267.212C175.773 266.879 175.168 266.54 174.566 266.195C173.964 265.85 173.365 265.499 172.77 265.143C172.174 264.787 171.583 264.424 170.994 264.057C170.406 263.689 169.821 263.316 169.24 262.937C168.658 262.558 168.081 262.174 167.507 261.784C166.933 261.394 166.363 260.998 165.796 260.597C165.23 260.197 164.667 259.79 164.109 259.379C163.55 258.967 162.995 258.55 162.445 258.128C161.894 257.706 161.347 257.278 160.805 256.846C160.263 256.413 159.724 255.975 159.19 255.532C158.656 255.089 158.126 254.641 157.601 254.188C157.075 253.735 156.554 253.277 156.037 252.814C155.521 252.35 155.008 251.883 154.5 251.41C153.993 250.937 153.489 250.459 152.991 249.977C152.492 249.494 151.998 249.007 151.509 248.515C151.02 248.023 150.535 247.526 150.055 247.025C149.575 246.524 149.1 246.018 148.63 245.508C148.16 244.997 147.695 244.483 147.234 243.963C146.774 243.444 146.319 242.92 145.868 242.393C145.418 241.865 144.973 241.332 144.533 240.796C144.093 240.259 143.658 239.719 143.228 239.174C142.798 238.629 142.374 238.081 141.954 237.528C141.535 236.975 141.121 236.418 140.713 235.857C140.304 235.296 139.901 234.731 139.503 234.163C139.105 233.594 138.713 233.022 138.326 232.446C137.939 231.87 137.558 231.29 137.182 230.707C136.806 230.124 136.436 229.537 136.072 228.947C135.707 228.356 135.348 227.762 134.995 227.165C131.599 221.436 128.711 215.189 126.149 209.045C121.511 197.924 117.245 185.308 115.465 173.388C114.972 170.083 114.76 166.734 114.554 163.401C114.318 159.598 114.177 155.813 114.412 152.008C114.641 148.307 115.245 144.678 115.853 141.023C117.074 133.686 118.958 126.379 121.823 119.496C127.623 105.56 137.935 93.8425 152.082 88.0695C166.131 82.3367 182.395 81.9878 196.849 86.4273C199.31 87.1834 201.686 88.184 204.059 89.1786C205.831 87.9902 207.405 86.1622 209.053 84.7704C211.448 82.7476 214.083 80.9184 216.645 79.1103C227.172 71.6799 239.076 66.8951 250.998 62.2412Z" fill="#FEFEFE"/>
<path d="M274.093 103.82C274.264 103.866 274.317 103.87 274.491 103.969C275.327 104.441 275.96 105.498 276.567 106.226C277.297 107.101 278.06 107.919 278.684 108.877C280.818 112.154 282.155 116.599 283.166 120.375C284.505 125.38 285.05 130.406 286.012 135.474C286.59 138.518 288.114 143.209 287.922 146.101C287.688 149.635 285.628 155.19 283.844 158.24C279.441 165.767 271.341 171.679 262.948 173.901L262.926 177.957C261.062 181.335 254.845 185.915 251.568 188.186C247.732 185.665 244.312 182.749 240.893 179.706C240.798 178.371 241.065 174.803 240.418 173.792C239.932 173.032 239.068 172.924 238.256 172.691C233.459 171.045 228.793 168.586 225.008 165.189C219.216 159.992 214.431 151.256 214.04 143.394C213.961 141.795 214.326 140.16 214.536 138.578C215.574 130.751 217.517 119.838 220.657 112.581C221.982 109.517 223.87 106.528 226.126 104.066C229.536 105.758 233.21 107.165 236.895 108.105C245.337 110.258 255.454 110.91 263.864 108.454C267.531 107.383 270.821 105.753 274.093 103.82Z" fill="#FEFEFE"/>
<path d="M245.324 157.432C247.669 157.988 249.378 158.699 251.883 158.51C253.398 158.397 255.084 157.184 256.586 157.52C256.968 157.798 256.979 157.792 257.1 158.245C256.983 158.832 256.851 159.01 256.43 159.437C253.195 160.699 249.277 161.008 245.965 159.816C245.356 159.597 245.071 159.405 244.783 158.823C244.827 158.185 244.919 157.93 245.324 157.432Z" fill="black"/>
<path d="M232.256 113.732C232.765 113.695 233.277 113.659 233.787 113.694C235.566 113.817 237.565 114.538 238.756 115.919C238.833 116.24 238.857 116.094 238.718 116.358C237.806 116.911 233.407 116.398 231.763 116.539C230.213 116.796 228.771 117.607 227.255 117.789C226.751 117.85 226.444 117.797 226.051 117.482C225.999 117.1 226.121 116.84 226.344 116.538C227.675 114.738 230.161 114.116 232.256 113.732Z" fill="black"/>
<path d="M267.557 113.74C270.058 113.514 272.573 114.126 274.615 115.613C275.162 116.01 276.005 116.718 276.056 117.446C276.073 117.688 275.939 117.746 275.791 117.913C274.719 118.262 273.776 117.697 272.803 117.286C272.106 117.046 271.395 116.857 270.671 116.722C269.946 116.586 269.216 116.503 268.479 116.474C267.525 116.438 264.248 116.945 263.684 116.621C263.541 116.274 263.477 116.207 263.657 115.844C264.276 114.6 266.325 114.075 267.557 113.74Z" fill="black"/>
<path d="M262.366 133.075C264.242 133.517 265.6 135.745 268.294 136.172C271 136.601 274.187 134.589 276.143 135.059C276.519 135.386 276.516 135.349 276.556 135.843C276.339 136.367 276.022 136.675 275.624 137.072C274.779 137.581 273.936 138.039 273.001 138.364C270.474 139.242 267.987 139.009 265.599 137.859C264.183 137.178 262.583 136.128 262.104 134.55C261.914 133.922 262.085 133.619 262.366 133.075Z" fill="black"/>
<path d="M240.021 133.278C240.558 133.4 240.75 133.47 241.046 133.923C241.101 134.459 241.007 134.782 240.73 135.234C239.598 137.087 237.049 138.416 234.973 138.853C232.226 139.43 229.819 138.703 227.512 137.252C227.454 137.204 227.395 137.157 227.338 137.107C226.792 136.624 226.167 135.984 226.188 135.199C226.195 134.934 226.331 134.917 226.519 134.768C227.823 134.515 230.221 136.18 231.893 136.376C235.151 136.758 237.596 135.188 240.021 133.278Z" fill="black"/>
<path d="M245.671 133.758C246.112 133.823 246.567 133.876 246.85 134.267C248.144 136.05 246.475 142.824 246.031 145.024C247.444 145.359 248.864 145.593 250.318 145.359C251.515 145.166 252.862 144.082 254.052 144.342C254.348 144.596 254.518 144.759 254.585 145.177C254.66 145.651 254.477 145.816 254.209 146.16C251.84 147.535 249.087 147.817 246.421 147.285C245.394 147.081 244.665 146.784 244.086 145.898C244.23 142.567 245.188 139.321 245.282 135.935C245.303 135.157 245.218 134.426 245.671 133.758Z" fill="black"/>
<path d="M299.876 300.291C299.96 300.296 300.044 300.291 300.127 300.306C301.269 300.5 305.514 302.625 306.851 303.182C317.952 307.808 339.352 317.624 345.057 328.412C346.383 330.92 346.726 333.748 345.83 336.457C344.526 340.395 340.549 343.294 336.972 345.032C334.373 346.296 331.509 347.047 328.732 347.818C321.831 349.733 315.127 351.12 307.975 351.634C298.695 352.301 289.359 351.839 280.118 350.857C275.382 350.353 270.366 349.365 265.629 349.284C260.925 349.204 256.172 349.818 251.444 349.793C248.938 349.769 246.434 349.672 243.934 349.502C242.187 349.393 240.387 349.177 238.641 349.275C234.61 349.503 230.584 350.043 226.553 350.347C212.994 351.367 194.447 352.068 181.255 349.19C177.923 348.463 174.801 347.343 171.59 346.219C189.049 348.552 207.254 347.259 224.687 345.148C233.196 344.118 241.769 342.889 250.104 340.864C252.699 340.233 257.721 339.317 259.859 337.866C261.525 336.735 261.904 334.52 262.235 332.685C266.949 332.628 271.734 332.674 276.399 331.908C282.774 330.861 288.72 328.553 294.894 326.785C300.124 325.288 305.405 324.359 310.75 323.392C312.403 323.093 319.07 322.339 319.85 321.14C320.093 320.766 320.176 320.337 320.017 319.908C319.467 318.423 317.143 317.675 315.771 317.204C316.093 316.427 316.299 315.547 316.059 314.713C315.568 313 313.21 313.509 312.43 312.876C311.287 311.949 312.537 310.809 309.812 311.371C309.551 311.425 309.253 311.464 309.003 311.329C308.145 310.864 307.864 309.595 306.957 309.088C305.888 308.491 304.732 308.757 303.68 309.226C302.505 309.748 301.351 310.378 300.133 310.795C298.977 311.191 297.697 311.364 296.497 311.59C291.369 312.558 287.166 312.618 281.969 312.291C277.798 312.029 273.838 311.559 269.771 312.905C264.714 314.578 262.573 319.236 260.356 323.65C260.059 322.966 259.722 322.298 259.4 321.626C258.823 320.595 258.257 319.642 257.374 318.832C256.462 317.996 255.37 317.378 254.162 317.093C251.62 316.492 243.658 316.88 240.714 317.022C236.051 313.776 230.717 310.845 224.988 310.164C216.066 309.103 208.987 314.348 200.124 308.714C198.096 309.469 196.026 310.047 193.924 310.554C192.252 310.957 190.305 311.216 188.755 311.961C187.886 312.379 187.121 313.053 186.839 314.005C186.559 314.952 186.915 315.667 187.364 316.485C186.036 317.402 180.434 320.354 179.846 321.028C180.19 321.528 180.623 321.641 181.216 321.71C183.275 321.951 185.637 321.621 187.72 321.517L200.719 320.837C213.385 320.144 226.056 319.569 238.732 319.112C241.83 318.987 251.713 318.552 254.273 319.236C255.758 319.633 256.863 321.078 257.565 322.368C259.084 325.155 260.861 331.43 259.866 334.448C259.524 335.488 258.893 336.177 257.903 336.634C255.574 337.707 252.692 338.141 250.191 338.755C232.196 343.169 181.79 349.382 165.349 342.952C162.348 341.778 159.653 339.547 158.363 336.552C157.16 333.756 157.314 330.724 158.471 327.942C163.58 315.659 189.612 305.456 201.444 300.49C203.849 302.065 206.796 303.377 209.472 304.405C212.144 305.43 227.566 309.89 229.463 309.651C229.968 309.352 230.145 308.819 230.393 308.311C234.743 309.522 239.171 310.732 243.628 311.473C246.137 309.04 248.241 306.228 250.845 303.862C253.626 306.141 255.986 308.948 258.557 311.458C262.657 310.928 269.769 309.281 273.67 307.963C274.077 308.332 274.544 308.638 275.081 308.778C280.903 310.297 294.616 303.424 299.876 300.291Z" fill="#FEFEFE"/>
<rect x="351.168" y="67.543" width="81.8306" height="32.7323" transform="rotate(50.2616 351.168 67.543)" fill="#010101"/>
<rect x="408.23" y="131.98" width="81.8306" height="32.7323" transform="rotate(101.615 408.23 131.98)" fill="#010101"/>
<rect x="395.184" y="218.322" width="87.1434" height="32.7323" transform="rotate(125.916 395.184 218.322)" fill="#010101"/>
<rect x="264.023" y="49.0986" width="81.8306" height="33.9529" transform="rotate(18.1164 264.023 49.0986)" fill="#010101"/>
<rect x="185.605" y="65.6592" width="81.8306" height="33.9529" transform="rotate(-18.9758 185.605 65.6592)" fill="#010101"/>
<rect x="112.006" y="92.0732" width="81.8306" height="33.9529" transform="rotate(-18.9758 112.006 92.0732)" fill="#010101"/>
<rect x="108.316" y="196.269" width="81.8306" height="33.9529" transform="rotate(-92.1915 108.316 196.269)" fill="#010101"/>
<rect x="139.35" y="270.43" width="81.8306" height="33.9529" transform="rotate(-124.012 139.35 270.43)" fill="#010101"/>
<rect x="157.779" y="288.673" width="81.8306" height="33.9529" transform="rotate(-124.012 157.779 288.673)" fill="#010101"/>
<g filter="url(#filter0_dddddddd_958_1326)">
<rect width="122.746" height="122.746" rx="18.4119" transform="matrix(0.514435 -0.857529 0.979965 0.199171 11.082 133.898)" fill="#080808"/>
<path d="M78.3538 99.645L73.3926 107.915L87.8003 110.843C88.1916 110.227 88.6645 109.429 89.0535 108.617C89.8793 106.892 89.2646 105.465 88.7393 104.287C88.7105 104.223 88.6816 104.157 88.6522 104.09C88.1446 102.94 87.5122 101.506 85.7189 101.142L78.3538 99.645Z" fill="white"/>
<path d="M90.8294 111.459L110.624 115.482L115.629 107.139C112 106.255 104.254 104.433 102.76 104.605C100.794 104.832 98.7026 105.241 97.0322 105.973C95.362 106.704 93.0413 107.772 92.1561 109.247L90.8294 111.459Z" fill="white"/>
<path d="M117.16 104.588L131.672 80.396L102.405 92.1628L101.043 94.4335C100.343 95.6009 100.832 97.5857 101.357 98.7632C101.882 99.9405 103.081 101.019 104.377 101.908C105.362 102.584 113.374 103.965 117.16 104.588Z" fill="white"/>
<path d="M99.855 90.6113L92.4215 76.1952L79.951 96.9825C83.7142 97.7482 86.7773 98.3614 87.3377 98.4448C88.9545 98.6855 91.3941 97.8088 93.0643 97.0777C94.7345 96.3465 97.1072 95.1917 97.9403 93.803L99.855 90.6113Z" fill="white"/>
</g>
<g filter="url(#filter1_dddddddd_958_1326)">
<rect width="87.1735" height="87.1735" rx="13.076" transform="matrix(0.969943 -0.243331 0.552729 0.833361 0 205.774)" fill="#080808"/>
<path d="M50.9968 222.318L44.3535 223.984L50.1248 232.686C50.6308 232.572 51.2687 232.409 51.872 232.196C53.1524 231.743 53.5598 230.718 53.8867 229.862C53.9046 229.815 53.923 229.768 53.9416 229.72C54.2639 228.887 54.6654 227.849 53.947 226.766L50.9968 222.318Z" fill="white"/>
<path d="M51.3382 234.515L59.2674 246.47L65.9694 244.789C64.589 242.524 61.6104 237.721 60.7731 237.058C59.6716 236.185 58.415 235.341 57.2086 234.871C56.0022 234.4 54.3 233.772 53.1148 234.07L51.3382 234.515Z" fill="white"/>
<path d="M68.0186 244.275L87.4518 239.4L66.8387 230.627L65.0146 231.084C64.0769 231.32 63.3268 232.563 62.9999 233.418C62.673 234.273 62.7342 235.416 62.9395 236.514C63.0955 237.348 66.429 242.062 68.0186 244.275Z" fill="white"/>
<path d="M66.3356 228.567L69.8339 217.592L53.1355 221.781C54.6426 224.054 55.8742 225.9 56.114 226.223C56.8057 227.155 58.4717 227.939 59.678 228.409C60.8843 228.88 62.6562 229.49 63.7718 229.21L66.3356 228.567Z" fill="white"/>
</g>
<g filter="url(#filter2_dddddddd_958_1326)">
<rect width="87.1735" height="87.1735" rx="13.076" transform="matrix(0.906185 -0.422881 0.700758 0.7134 352.043 259.171)" fill="#080808"/>
<path d="M405.251 265.741L399.045 268.638L406.362 276.087C406.837 275.879 407.432 275.598 407.984 275.274C409.156 274.587 409.361 273.503 409.52 272.601C409.529 272.551 409.538 272.501 409.547 272.45C409.705 271.571 409.903 270.476 408.992 269.549L405.251 265.741Z" fill="white"/>
<path d="M407.9 277.653L417.953 287.887L424.214 284.965C422.429 283.003 418.594 278.852 417.646 278.359C416.399 277.712 415.005 277.122 413.731 276.888C412.458 276.655 410.667 276.361 409.56 276.878L407.9 277.653Z" fill="white"/>
<path d="M426.129 284.071L444.285 275.599L422.382 270.895L420.678 271.69C419.802 272.099 419.301 273.462 419.142 274.363C418.983 275.265 419.26 276.376 419.67 277.414C419.981 278.204 424.148 282.2 426.129 284.071Z" fill="white"/>
<path d="M421.497 268.968L422.85 257.529L407.25 264.809C409.16 266.755 410.72 268.333 411.016 268.605C411.872 269.389 413.657 269.842 414.93 270.076C416.204 270.309 418.06 270.572 419.102 270.086L421.497 268.968Z" fill="white"/>
</g>
<g filter="url(#filter3_dddddddd_958_1326)">
<rect width="122.746" height="122.746" rx="18.4119" transform="matrix(0.997118 -0.0758727 0.403906 0.914801 281.123 9.3125)" fill="#080808"/>
<path d="M347.958 44.4099L338.342 45.1416L344.28 58.5913C345.009 58.5543 345.934 58.4791 346.821 58.3269C348.706 58.0039 349.516 56.6771 350.173 55.5679C350.209 55.5072 350.246 55.4456 350.283 55.383C350.929 54.304 351.733 52.9593 350.994 51.2852L347.958 44.4099Z" fill="white"/>
<path d="M345.529 61.4189L353.687 79.8974L363.389 79.1592C362.012 75.6871 359.021 68.3129 358.017 67.1929C356.696 65.7196 355.153 64.2498 353.591 63.3094C352.029 62.3691 349.816 61.0927 348.1 61.2232L345.529 61.4189Z" fill="white"/>
<path d="M366.355 78.9335L394.485 76.7931L367.966 59.7116L365.325 59.9125C363.968 60.0158 362.631 61.5623 361.974 62.6715C361.317 63.7806 361.13 65.3818 361.153 66.9535C361.171 68.1484 364.675 75.4842 366.355 78.9335Z" fill="white"/>
<path d="M367.758 56.7338L375.225 42.3351L351.054 44.1743C352.604 47.6877 353.874 50.5417 354.13 51.0473C354.868 52.5057 356.994 53.9898 358.556 54.9301C360.118 55.8704 362.432 57.1391 364.047 57.0162L367.758 56.7338Z" fill="white"/>
</g>
<defs>
<filter id="filter0_dddddddd_958_1326" x="11.082" y="28.6406" width="183.432" height="135.842" filterUnits="userSpaceOnUse" color-interpolation-filters="sRGB">
<feFlood flood-opacity="0" result="BackgroundImageFix"/>
<feColorMatrix in="SourceAlpha" type="matrix" values="0 0 0 0 0 0 0 0 0 0 0 0 0 0 0 0 0 0 127 0" result="hardAlpha"/>
<feOffset dy="6.1373"/>
<feColorMatrix type="matrix" values="0 0 0 0 0.145098 0 0 0 0 0.145098 0 0 0 0 0.145098 0 0 0 1 0"/>
<feBlend mode="normal" in2="BackgroundImageFix" result="effect1_dropShadow_958_1326"/>
<feColorMatrix in="SourceAlpha" type="matrix" values="0 0 0 0 0 0 0 0 0 0 0 0 0 0 0 0 0 0 127 0" result="hardAlpha"/>
<feOffset dy="5.37013"/>
<feColorMatrix type="matrix" values="0 0 0 0 0.145098 0 0 0 0 0.145098 0 0 0 0 0.145098 0 0 0 1 0"/>
<feBlend mode="normal" in2="effect1_dropShadow_958_1326" result="effect2_dropShadow_958_1326"/>
<feColorMatrix in="SourceAlpha" type="matrix" values="0 0 0 0 0 0 0 0 0 0 0 0 0 0 0 0 0 0 127 0" result="hardAlpha"/>
<feOffset dy="4.60297"/>
<feColorMatrix type="matrix" values="0 0 0 0 0.145098 0 0 0 0 0.145098 0 0 0 0 0.145098 0 0 0 1 0"/>
<feBlend mode="normal" in2="effect2_dropShadow_958_1326" result="effect3_dropShadow_958_1326"/>
<feColorMatrix in="SourceAlpha" type="matrix" values="0 0 0 0 0 0 0 0 0 0 0 0 0 0 0 0 0 0 127 0" result="hardAlpha"/>
<feOffset dy="3.83581"/>
<feColorMatrix type="matrix" values="0 0 0 0 0.145098 0 0 0 0 0.145098 0 0 0 0 0.145098 0 0 0 0.545098 0"/>
<feBlend mode="normal" in2="effect3_dropShadow_958_1326" result="effect4_dropShadow_958_1326"/>
<feColorMatrix in="SourceAlpha" type="matrix" values="0 0 0 0 0 0 0 0 0 0 0 0 0 0 0 0 0 0 127 0" result="hardAlpha"/>
<feOffset dy="3.06865"/>
<feColorMatrix type="matrix" values="0 0 0 0 0.145098 0 0 0 0 0.145098 0 0 0 0 0.145098 0 0 0 1 0"/>
<feBlend mode="normal" in2="effect4_dropShadow_958_1326" result="effect5_dropShadow_958_1326"/>
<feColorMatrix in="SourceAlpha" type="matrix" values="0 0 0 0 0 0 0 0 0 0 0 0 0 0 0 0 0 0 127 0" result="hardAlpha"/>
<feOffset dy="2.30149"/>
<feColorMatrix type="matrix" values="0 0 0 0 0.145098 0 0 0 0 0.145098 0 0 0 0 0.145098 0 0 0 1 0"/>
<feBlend mode="normal" in2="effect5_dropShadow_958_1326" result="effect6_dropShadow_958_1326"/>
<feColorMatrix in="SourceAlpha" type="matrix" values="0 0 0 0 0 0 0 0 0 0 0 0 0 0 0 0 0 0 127 0" result="hardAlpha"/>
<feOffset dy="1.53432"/>
<feColorMatrix type="matrix" values="0 0 0 0 0.145098 0 0 0 0 0.145098 0 0 0 0 0.145098 0 0 0 1 0"/>
<feBlend mode="normal" in2="effect6_dropShadow_958_1326" result="effect7_dropShadow_958_1326"/>
<feColorMatrix in="SourceAlpha" type="matrix" values="0 0 0 0 0 0 0 0 0 0 0 0 0 0 0 0 0 0 127 0" result="hardAlpha"/>
<feOffset dy="0.767162"/>
<feColorMatrix type="matrix" values="0 0 0 0 0.14375 0 0 0 0 0.14375 0 0 0 0 0.14375 0 0 0 1 0"/>
<feBlend mode="normal" in2="effect7_dropShadow_958_1326" result="effect8_dropShadow_958_1326"/>
<feBlend mode="normal" in="SourceGraphic" in2="effect8_dropShadow_958_1326" result="shape"/>
</filter>
<filter id="filter1_dddddddd_958_1326" x="0" y="184.562" width="132.737" height="98.218" filterUnits="userSpaceOnUse" color-interpolation-filters="sRGB">
<feFlood flood-opacity="0" result="BackgroundImageFix"/>
<feColorMatrix in="SourceAlpha" type="matrix" values="0 0 0 0 0 0 0 0 0 0 0 0 0 0 0 0 0 0 127 0" result="hardAlpha"/>
<feOffset dy="4.35867"/>
<feColorMatrix type="matrix" values="0 0 0 0 0.145098 0 0 0 0 0.145098 0 0 0 0 0.145098 0 0 0 1 0"/>
<feBlend mode="normal" in2="BackgroundImageFix" result="effect1_dropShadow_958_1326"/>
<feColorMatrix in="SourceAlpha" type="matrix" values="0 0 0 0 0 0 0 0 0 0 0 0 0 0 0 0 0 0 127 0" result="hardAlpha"/>
<feOffset dy="3.81384"/>
<feColorMatrix type="matrix" values="0 0 0 0 0.145098 0 0 0 0 0.145098 0 0 0 0 0.145098 0 0 0 1 0"/>
<feBlend mode="normal" in2="effect1_dropShadow_958_1326" result="effect2_dropShadow_958_1326"/>
<feColorMatrix in="SourceAlpha" type="matrix" values="0 0 0 0 0 0 0 0 0 0 0 0 0 0 0 0 0 0 127 0" result="hardAlpha"/>
<feOffset dy="3.26901"/>
<feColorMatrix type="matrix" values="0 0 0 0 0.145098 0 0 0 0 0.145098 0 0 0 0 0.145098 0 0 0 1 0"/>
<feBlend mode="normal" in2="effect2_dropShadow_958_1326" result="effect3_dropShadow_958_1326"/>
<feColorMatrix in="SourceAlpha" type="matrix" values="0 0 0 0 0 0 0 0 0 0 0 0 0 0 0 0 0 0 127 0" result="hardAlpha"/>
<feOffset dy="2.72417"/>
<feColorMatrix type="matrix" values="0 0 0 0 0.145098 0 0 0 0 0.145098 0 0 0 0 0.145098 0 0 0 0.545098 0"/>
<feBlend mode="normal" in2="effect3_dropShadow_958_1326" result="effect4_dropShadow_958_1326"/>
<feColorMatrix in="SourceAlpha" type="matrix" values="0 0 0 0 0 0 0 0 0 0 0 0 0 0 0 0 0 0 127 0" result="hardAlpha"/>
<feOffset dy="2.17934"/>
<feColorMatrix type="matrix" values="0 0 0 0 0.145098 0 0 0 0 0.145098 0 0 0 0 0.145098 0 0 0 1 0"/>
<feBlend mode="normal" in2="effect4_dropShadow_958_1326" result="effect5_dropShadow_958_1326"/>
<feColorMatrix in="SourceAlpha" type="matrix" values="0 0 0 0 0 0 0 0 0 0 0 0 0 0 0 0 0 0 127 0" result="hardAlpha"/>
<feOffset dy="1.6345"/>
<feColorMatrix type="matrix" values="0 0 0 0 0.145098 0 0 0 0 0.145098 0 0 0 0 0.145098 0 0 0 1 0"/>
<feBlend mode="normal" in2="effect5_dropShadow_958_1326" result="effect6_dropShadow_958_1326"/>
<feColorMatrix in="SourceAlpha" type="matrix" values="0 0 0 0 0 0 0 0 0 0 0 0 0 0 0 0 0 0 127 0" result="hardAlpha"/>
<feOffset dy="1.08967"/>
<feColorMatrix type="matrix" values="0 0 0 0 0.145098 0 0 0 0 0.145098 0 0 0 0 0.145098 0 0 0 1 0"/>
<feBlend mode="normal" in2="effect6_dropShadow_958_1326" result="effect7_dropShadow_958_1326"/>
<feColorMatrix in="SourceAlpha" type="matrix" values="0 0 0 0 0 0 0 0 0 0 0 0 0 0 0 0 0 0 127 0" result="hardAlpha"/>
<feOffset dy="0.544834"/>
<feColorMatrix type="matrix" values="0 0 0 0 0.14375 0 0 0 0 0.14375 0 0 0 0 0.14375 0 0 0 1 0"/>
<feBlend mode="normal" in2="effect7_dropShadow_958_1326" result="effect8_dropShadow_958_1326"/>
<feBlend mode="normal" in="SourceGraphic" in2="effect8_dropShadow_958_1326" result="shape"/>
</filter>
<filter id="filter2_dddddddd_958_1326" x="352.043" y="222.307" width="140.083" height="103.412" filterUnits="userSpaceOnUse" color-interpolation-filters="sRGB">
<feFlood flood-opacity="0" result="BackgroundImageFix"/>
<feColorMatrix in="SourceAlpha" type="matrix" values="0 0 0 0 0 0 0 0 0 0 0 0 0 0 0 0 0 0 127 0" result="hardAlpha"/>
<feOffset dy="4.35867"/>
<feColorMatrix type="matrix" values="0 0 0 0 0.145098 0 0 0 0 0.145098 0 0 0 0 0.145098 0 0 0 1 0"/>
<feBlend mode="normal" in2="BackgroundImageFix" result="effect1_dropShadow_958_1326"/>
<feColorMatrix in="SourceAlpha" type="matrix" values="0 0 0 0 0 0 0 0 0 0 0 0 0 0 0 0 0 0 127 0" result="hardAlpha"/>
<feOffset dy="3.81384"/>
<feColorMatrix type="matrix" values="0 0 0 0 0.145098 0 0 0 0 0.145098 0 0 0 0 0.145098 0 0 0 1 0"/>
<feBlend mode="normal" in2="effect1_dropShadow_958_1326" result="effect2_dropShadow_958_1326"/>
<feColorMatrix in="SourceAlpha" type="matrix" values="0 0 0 0 0 0 0 0 0 0 0 0 0 0 0 0 0 0 127 0" result="hardAlpha"/>
<feOffset dy="3.26901"/>
<feColorMatrix type="matrix" values="0 0 0 0 0.145098 0 0 0 0 0.145098 0 0 0 0 0.145098 0 0 0 1 0"/>
<feBlend mode="normal" in2="effect2_dropShadow_958_1326" result="effect3_dropShadow_958_1326"/>
<feColorMatrix in="SourceAlpha" type="matrix" values="0 0 0 0 0 0 0 0 0 0 0 0 0 0 0 0 0 0 127 0" result="hardAlpha"/>
<feOffset dy="2.72417"/>
<feColorMatrix type="matrix" values="0 0 0 0 0.145098 0 0 0 0 0.145098 0 0 0 0 0.145098 0 0 0 0.545098 0"/>
<feBlend mode="normal" in2="effect3_dropShadow_958_1326" result="effect4_dropShadow_958_1326"/>
<feColorMatrix in="SourceAlpha" type="matrix" values="0 0 0 0 0 0 0 0 0 0 0 0 0 0 0 0 0 0 127 0" result="hardAlpha"/>
<feOffset dy="2.17934"/>
<feColorMatrix type="matrix" values="0 0 0 0 0.145098 0 0 0 0 0.145098 0 0 0 0 0.145098 0 0 0 1 0"/>
<feBlend mode="normal" in2="effect4_dropShadow_958_1326" result="effect5_dropShadow_958_1326"/>
<feColorMatrix in="SourceAlpha" type="matrix" values="0 0 0 0 0 0 0 0 0 0 0 0 0 0 0 0 0 0 127 0" result="hardAlpha"/>
<feOffset dy="1.6345"/>
<feColorMatrix type="matrix" values="0 0 0 0 0.145098 0 0 0 0 0.145098 0 0 0 0 0.145098 0 0 0 1 0"/>
<feBlend mode="normal" in2="effect5_dropShadow_958_1326" result="effect6_dropShadow_958_1326"/>
<feColorMatrix in="SourceAlpha" type="matrix" values="0 0 0 0 0 0 0 0 0 0 0 0 0 0 0 0 0 0 127 0" result="hardAlpha"/>
<feOffset dy="1.08967"/>
<feColorMatrix type="matrix" values="0 0 0 0 0.145098 0 0 0 0 0.145098 0 0 0 0 0.145098 0 0 0 1 0"/>
<feBlend mode="normal" in2="effect6_dropShadow_958_1326" result="effect7_dropShadow_958_1326"/>
<feColorMatrix in="SourceAlpha" type="matrix" values="0 0 0 0 0 0 0 0 0 0 0 0 0 0 0 0 0 0 127 0" result="hardAlpha"/>
<feOffset dy="0.544834"/>
<feColorMatrix type="matrix" values="0 0 0 0 0.14375 0 0 0 0 0.14375 0 0 0 0 0.14375 0 0 0 1 0"/>
<feBlend mode="normal" in2="effect7_dropShadow_958_1326" result="effect8_dropShadow_958_1326"/>
<feBlend mode="normal" in="SourceGraphic" in2="effect8_dropShadow_958_1326" result="shape"/>
</filter>
<filter id="filter3_dddddddd_958_1326" x="281.123" y="-0.000976562" width="171.97" height="127.739" filterUnits="userSpaceOnUse" color-interpolation-filters="sRGB">
<feFlood flood-opacity="0" result="BackgroundImageFix"/>
<feColorMatrix in="SourceAlpha" type="matrix" values="0 0 0 0 0 0 0 0 0 0 0 0 0 0 0 0 0 0 127 0" result="hardAlpha"/>
<feOffset dy="6.1373"/>
<feColorMatrix type="matrix" values="0 0 0 0 0.145098 0 0 0 0 0.145098 0 0 0 0 0.145098 0 0 0 1 0"/>
<feBlend mode="normal" in2="BackgroundImageFix" result="effect1_dropShadow_958_1326"/>
<feColorMatrix in="SourceAlpha" type="matrix" values="0 0 0 0 0 0 0 0 0 0 0 0 0 0 0 0 0 0 127 0" result="hardAlpha"/>
<feOffset dy="5.37013"/>
<feColorMatrix type="matrix" values="0 0 0 0 0.145098 0 0 0 0 0.145098 0 0 0 0 0.145098 0 0 0 1 0"/>
<feBlend mode="normal" in2="effect1_dropShadow_958_1326" result="effect2_dropShadow_958_1326"/>
<feColorMatrix in="SourceAlpha" type="matrix" values="0 0 0 0 0 0 0 0 0 0 0 0 0 0 0 0 0 0 127 0" result="hardAlpha"/>
<feOffset dy="4.60297"/>
<feColorMatrix type="matrix" values="0 0 0 0 0.145098 0 0 0 0 0.145098 0 0 0 0 0.145098 0 0 0 1 0"/>
<feBlend mode="normal" in2="effect2_dropShadow_958_1326" result="effect3_dropShadow_958_1326"/>
<feColorMatrix in="SourceAlpha" type="matrix" values="0 0 0 0 0 0 0 0 0 0 0 0 0 0 0 0 0 0 127 0" result="hardAlpha"/>
<feOffset dy="3.83581"/>
<feColorMatrix type="matrix" values="0 0 0 0 0.145098 0 0 0 0 0.145098 0 0 0 0 0.145098 0 0 0 0.545098 0"/>
<feBlend mode="normal" in2="effect3_dropShadow_958_1326" result="effect4_dropShadow_958_1326"/>
<feColorMatrix in="SourceAlpha" type="matrix" values="0 0 0 0 0 0 0 0 0 0 0 0 0 0 0 0 0 0 127 0" result="hardAlpha"/>
<feOffset dy="3.06865"/>
<feColorMatrix type="matrix" values="0 0 0 0 0.145098 0 0 0 0 0.145098 0 0 0 0 0.145098 0 0 0 1 0"/>
<feBlend mode="normal" in2="effect4_dropShadow_958_1326" result="effect5_dropShadow_958_1326"/>
<feColorMatrix in="SourceAlpha" type="matrix" values="0 0 0 0 0 0 0 0 0 0 0 0 0 0 0 0 0 0 127 0" result="hardAlpha"/>
<feOffset dy="2.30149"/>
<feColorMatrix type="matrix" values="0 0 0 0 0.145098 0 0 0 0 0.145098 0 0 0 0 0.145098 0 0 0 1 0"/>
<feBlend mode="normal" in2="effect5_dropShadow_958_1326" result="effect6_dropShadow_958_1326"/>
<feColorMatrix in="SourceAlpha" type="matrix" values="0 0 0 0 0 0 0 0 0 0 0 0 0 0 0 0 0 0 127 0" result="hardAlpha"/>
<feOffset dy="1.53432"/>
<feColorMatrix type="matrix" values="0 0 0 0 0.145098 0 0 0 0 0.145098 0 0 0 0 0.145098 0 0 0 1 0"/>
<feBlend mode="normal" in2="effect6_dropShadow_958_1326" result="effect7_dropShadow_958_1326"/>
<feColorMatrix in="SourceAlpha" type="matrix" values="0 0 0 0 0 0 0 0 0 0 0 0 0 0 0 0 0 0 127 0" result="hardAlpha"/>
<feOffset dy="0.767162"/>
<feColorMatrix type="matrix" values="0 0 0 0 0.14375 0 0 0 0 0.14375 0 0 0 0 0.14375 0 0 0 1 0"/>
<feBlend mode="normal" in2="effect7_dropShadow_958_1326" result="effect8_dropShadow_958_1326"/>
<feBlend mode="normal" in="SourceGraphic" in2="effect8_dropShadow_958_1326" result="shape"/>
</filter>
</defs>
</svg>
